<svg width="20" height="20" viewBox="0 0 20 20" fill="none" xmlns="http://www.w3.org/2000/svg">
<path d="M0.833333 0.833984C0.61232 0.833984 0.400358 0.921782 0.244078 1.07806C0.0877974 1.23434 0 1.4463 0 1.66732C0 1.88833 0.0877974 2.10029 0.244078 2.25657C0.400358 2.41285 0.61232 2.50065 0.833333 2.50065H2.31667C2.4378 2.50086 2.5558 2.5391 2.65403 2.60997C2.75227 2.68084 2.82577 2.78077 2.86417 2.89565L5.61167 11.1398C5.73417 11.5065 5.74917 11.8998 5.65583 12.2748L5.43 13.1807C5.0975 14.509 6.13167 15.834 7.5 15.834H17.5C17.721 15.834 17.933 15.7462 18.0893 15.5899C18.2455 15.4336 18.3333 15.2217 18.3333 15.0007C18.3333 14.7796 18.2455 14.5677 18.0893 14.4114C17.933 14.2551 17.721 14.1673 17.5 14.1673H7.5C7.175 14.1673 6.96667 13.9007 7.04583 13.5865L7.21667 12.9048C7.24545 12.7895 7.31191 12.6871 7.40552 12.6139C7.49912 12.5407 7.61449 12.5008 7.73333 12.5007H16.6667C16.8418 12.5009 17.0125 12.4459 17.1546 12.3436C17.2967 12.2413 17.403 12.0968 17.4583 11.9307L19.6792 5.26398C19.7209 5.13871 19.7323 5.00531 19.7123 4.87478C19.6924 4.74425 19.6417 4.62033 19.5645 4.51323C19.4872 4.40613 19.3856 4.31891 19.2681 4.25877C19.1505 4.19863 19.0204 4.16729 18.8883 4.16732H5.4625C5.34123 4.16728 5.22304 4.12912 5.12464 4.05824C5.02624 3.98736 4.95261 3.88734 4.91417 3.77232L4.12417 1.40398C4.06888 1.23798 3.96274 1.09359 3.82079 0.991282C3.67885 0.888975 3.5083 0.833942 3.33333 0.833984H0.833333ZM6.66667 16.6673C6.22464 16.6673 5.80072 16.8429 5.48816 17.1555C5.17559 17.468 5 17.892 5 18.334C5 18.776 5.17559 19.1999 5.48816 19.5125C5.80072 19.8251 6.22464 20.0007 6.66667 20.0007C7.10869 20.0007 7.53262 19.8251 7.84518 19.5125C8.15774 19.1999 8.33333 18.776 8.33333 18.334C8.33333 17.892 8.15774 17.468 7.84518 17.1555C7.53262 16.8429 7.10869 16.6673 6.66667 16.6673ZM16.6667 16.6673C16.2246 16.6673 15.8007 16.8429 15.4882 17.1555C15.1756 17.468 15 17.892 15 18.334C15 18.776 15.1756 19.1999 15.4882 19.5125C15.8007 19.8251 16.2246 20.0007 16.6667 20.0007C17.1087 20.0007 17.5326 19.8251 17.8452 19.5125C18.1577 19.1999 18.3333 18.776 18.3333 18.334C18.3333 17.892 18.1577 17.468 17.8452 17.1555C17.5326 16.8429 17.1087 16.6673 16.6667 16.6673Z" fill="white"/>
</svg>
