<svg width="26" height="26" viewBox="0 0 26 26" fill="none" xmlns="http://www.w3.org/2000/svg">
<circle cx="13" cy="13" r="13" fill="#0E1255"/>
<path d="M8.14024 7.65234C8.13987 7.65234 8.13944 7.65234 8.13906 7.65234C8.00665 7.65234 7.88211 7.70396 7.78807 7.79777C7.693 7.89261 7.64062 8.01889 7.64062 8.15333V15.6655C7.64062 15.941 7.86562 16.1656 8.14222 16.1664C9.30833 16.1691 11.262 16.4122 12.6098 17.8226V9.96089C12.6098 9.86751 12.5859 9.77979 12.5409 9.70719C11.4347 7.92575 9.30899 7.65508 8.14024 7.65234Z" fill="white"/>
<path d="M18.3597 15.6656V8.15333C18.3597 8.01889 18.3074 7.89261 18.2123 7.79777C18.1183 7.70396 17.9936 7.65234 17.8614 7.65234C17.8609 7.65234 17.8605 7.65234 17.8601 7.65234C16.6914 7.65512 14.5657 7.92579 13.4594 9.70724C13.4144 9.77983 13.3906 9.86756 13.3906 9.96094V17.8226C14.7384 16.4122 16.6921 16.1691 17.8582 16.1664C18.1348 16.1656 18.3597 15.941 18.3597 15.6656Z" fill="white"/>
<path d="M19.4978 9.38477H19.1345V15.6655C19.1345 16.3689 18.5615 16.9424 17.857 16.9441C16.8679 16.9465 15.2371 17.1399 14.082 18.2331C16.0797 17.744 18.1855 18.0619 19.3856 18.3354C19.5355 18.3695 19.6903 18.3343 19.8104 18.2386C19.93 18.1431 19.9987 18.0005 19.9987 17.8473V9.88566C19.9987 9.60947 19.774 9.38477 19.4978 9.38477Z" fill="white"/>
<path d="M6.86414 15.6655V9.38477H6.50089C6.22475 9.38477 6 9.60947 6 9.88566V17.8472C6 18.0004 6.06863 18.143 6.18827 18.2385C6.30824 18.3341 6.46294 18.3695 6.61303 18.3353C7.81317 18.0617 9.91907 17.7438 11.9166 18.2329C10.7616 17.1398 9.13073 16.9464 8.14163 16.9441C7.43724 16.9424 6.86414 16.3689 6.86414 15.6655Z" fill="white"/>
</svg>
