<svg width="76" height="22" viewBox="0 0 76 22" fill="none" xmlns="http://www.w3.org/2000/svg">
<rect width="76" height="22" rx="11" fill="white"/>
<path d="M65.8864 6.36623L64.4529 15.3506C64.4476 15.3836 64.4495 15.4173 64.4586 15.4495C64.4677 15.4817 64.4837 15.5115 64.5056 15.5368C64.5274 15.5621 64.5546 15.5824 64.5851 15.5961C64.6156 15.6099 64.6488 15.6168 64.6823 15.6165H66.3788C66.4386 15.617 66.4967 15.5961 66.5424 15.5576C66.5882 15.5191 66.6186 15.4655 66.6282 15.4065L68.0616 6.42219C68.067 6.3892 68.0651 6.35544 68.056 6.32327C68.0469 6.2911 68.0309 6.2613 68.009 6.23597C67.9872 6.21064 67.96 6.19038 67.9295 6.17662C67.8989 6.16285 67.8658 6.15592 67.8323 6.1563H66.1358C66.0758 6.15511 66.0174 6.17576 65.9715 6.21439C65.9256 6.25303 65.8953 6.307 65.8864 6.36623ZM64.0749 8.98807H62.4653C62.4055 8.98749 62.3475 9.00832 62.3018 9.04677C62.2561 9.08523 62.2258 9.13877 62.2163 9.19765L62.163 9.52841C62.163 9.52841 60.9128 8.17614 58.6994 9.09001C57.4295 9.61324 56.82 10.6943 56.5606 11.4862C56.5606 11.4862 55.7374 13.8932 57.5993 15.218C57.5993 15.218 59.3257 16.4922 61.2698 15.1396L61.2362 15.3506C61.2284 15.4001 61.2371 15.4509 61.261 15.495C61.2849 15.5392 61.3226 15.5743 61.3684 15.5951C61.3988 15.6093 61.432 15.6165 61.4656 15.6165H63.0763C63.1363 15.6176 63.1947 15.597 63.2406 15.5584C63.2865 15.5197 63.3167 15.4658 63.3257 15.4065L64.3054 9.25397C64.3109 9.22101 64.3089 9.18725 64.2997 9.15514C64.2905 9.12302 64.2743 9.09335 64.2521 9.06827C64.2303 9.04271 64.2031 9.02225 64.1725 9.00833C64.1419 8.99442 64.1086 8.98773 64.0749 8.98807ZM61.7064 12.3883C61.6436 12.8182 61.4257 13.2105 61.0936 13.4915C60.7601 13.7735 60.3357 13.9258 59.8985 13.9202C59.727 13.9222 59.5563 13.8975 59.3925 13.8468C58.6976 13.6258 58.301 12.965 58.415 12.2486C58.4783 11.819 58.6964 11.427 59.0285 11.1462C59.3617 10.864 59.7858 10.7113 60.2229 10.716C60.3944 10.7142 60.5651 10.7393 60.7288 10.7901C61.4281 11.0097 61.8229 11.6716 61.7082 12.3887H61.7064V12.3883ZM53.1113 12.5584C53.9841 12.5584 54.8284 12.249 55.4916 11.6865C56.1533 11.126 56.5915 10.3472 56.7264 9.4917C57.0083 7.71208 55.6045 6.15879 53.6143 6.15879H50.4083C50.3485 6.15822 50.2904 6.1791 50.2447 6.21763C50.199 6.25616 50.1687 6.30978 50.1593 6.36873L48.7254 15.3531C48.7176 15.4026 48.7264 15.4534 48.7502 15.4975C48.7741 15.5417 48.8118 15.5768 48.8576 15.5976C48.8884 15.6118 48.9212 15.619 48.9548 15.619H50.6523C50.7122 15.6195 50.7702 15.5986 50.8159 15.5601C50.8616 15.5216 50.892 15.468 50.9014 15.409L51.3223 12.7708C51.3311 12.7115 51.3613 12.6574 51.4072 12.6187C51.4531 12.58 51.5116 12.5593 51.5717 12.5605L53.1113 12.5584ZM54.5312 9.41079C54.4265 10.0687 53.9127 10.5531 52.9297 10.5531H51.6731L52.0547 8.16046H53.2888C54.305 8.16224 54.6358 8.75569 54.5312 9.41257V9.41079Z" fill="#0070E0"/>
<path d="M46.7912 9.14164L44.8497 12.3869L43.8642 9.16552C43.8488 9.11411 43.8171 9.0691 43.7738 9.03728C43.7304 9.00545 43.6779 8.98854 43.6241 8.98909H41.872C41.8266 8.98848 41.7826 9.00423 41.748 9.03345C41.7134 9.06266 41.6905 9.10336 41.6837 9.14806C41.6794 9.17769 41.6825 9.20791 41.6926 9.23609L43.4584 14.6623L41.8612 17.2192C41.8477 17.2403 41.8386 17.2639 41.8345 17.2886C41.8304 17.3132 41.8314 17.3385 41.8374 17.3628C41.8434 17.3871 41.8543 17.4099 41.8695 17.4298C41.8846 17.4498 41.9037 17.4664 41.9255 17.4787C41.9548 17.4955 41.988 17.5041 42.0217 17.5037H43.9089C43.9628 17.5039 44.0158 17.4902 44.0628 17.4639C44.1098 17.4377 44.1492 17.3998 44.1772 17.354L49.1094 9.27494C49.1272 9.24681 49.1371 9.21434 49.1377 9.18104C49.1384 9.14774 49.13 9.11489 49.1133 9.08604C49.0966 9.05709 49.0725 9.03313 49.0434 9.01665C49.0143 9.00016 48.9813 8.99175 48.9479 8.9923H47.0613C47.0072 8.9918 46.9539 9.0053 46.9066 9.03147C46.8592 9.05764 46.8195 9.0956 46.7912 9.14164ZM40.8787 8.98909H39.2676C39.2077 8.98852 39.1495 9.00944 39.1038 9.04803C39.058 9.08663 39.0276 9.14034 39.0182 9.19938L38.9661 9.52979C38.9661 9.52979 37.7148 8.17752 35.5013 9.09139C34.2319 9.61461 33.622 10.6956 33.3636 11.4876C33.3636 11.4876 32.5397 13.8945 34.4012 15.2194C34.4012 15.2194 36.128 16.4936 38.0721 15.1409L38.0385 15.3519C38.0306 15.4015 38.0393 15.4523 38.0632 15.4965C38.087 15.5407 38.1248 15.5758 38.1707 15.5965C38.2011 15.6107 38.2343 15.6178 38.2679 15.6178H39.8786C39.9384 15.6183 39.9964 15.5973 40.042 15.5588C40.0877 15.5203 40.1181 15.4668 40.1276 15.4079L41.1077 9.25534C41.1157 9.20571 41.1071 9.15483 41.0832 9.11058C41.0593 9.06632 41.0214 9.03114 40.9755 9.01048C40.945 8.99648 40.9122 8.98919 40.8787 8.98909ZM38.5098 12.3901C38.4464 12.8194 38.2284 13.211 37.8967 13.4918C37.5633 13.7738 37.1392 13.9264 36.7022 13.9216C36.531 13.9235 36.3605 13.8987 36.197 13.8482C35.5024 13.6272 35.1062 12.9664 35.2201 12.2496C35.2836 11.819 35.5025 11.4264 35.8358 11.1454C36.1703 10.8633 36.5958 10.7112 37.0338 10.7174C37.2053 10.7156 37.3764 10.7406 37.5401 10.7915C38.2322 11.0111 38.6263 11.6726 38.5119 12.3901H38.5098ZM29.915 12.5597C30.7864 12.5593 31.6293 12.2499 32.2932 11.6869C32.9543 11.1263 33.392 10.3478 33.5266 9.49272C33.8088 7.71346 32.4046 6.16017 30.4152 6.16017H27.2088C27.149 6.15957 27.0909 6.18039 27.0452 6.21884C26.9994 6.25729 26.969 6.31083 26.9594 6.36975L25.5302 15.3516C25.5223 15.4012 25.5309 15.4521 25.5548 15.4964C25.5787 15.5406 25.6165 15.5758 25.6624 15.5965C25.6928 15.6104 25.726 15.6178 25.7596 15.6178H27.4561C27.516 15.6184 27.5742 15.5975 27.6199 15.5589C27.6657 15.5203 27.6961 15.4666 27.7055 15.4075L28.1257 12.7693C28.1346 12.7101 28.1648 12.6561 28.2107 12.6175C28.2566 12.5788 28.315 12.5582 28.375 12.5594L29.915 12.5597ZM31.3349 9.41181C31.2302 10.0698 30.7168 10.5541 29.7338 10.5541H28.4772L28.8581 8.16148H30.0922C31.1087 8.16326 31.4392 8.75706 31.3349 9.41359V9.41181Z" fill="#003087"/>
<path d="M18.9458 6.621C18.984 4.63716 17.3437 3.11523 15.0881 3.11523H10.4225C10.3138 3.11518 10.2086 3.15386 10.1259 3.22431C10.0433 3.29475 9.98852 3.39233 9.97158 3.49946L8.1022 15.152C8.09384 15.2048 8.09704 15.2588 8.1116 15.3102C8.12616 15.3617 8.15172 15.4094 8.18653 15.45C8.22133 15.4907 8.26456 15.5233 8.31322 15.5457C8.36189 15.5681 8.41484 15.5797 8.46843 15.5797H11.2325L10.8005 18.2778C10.7921 18.3306 10.7954 18.3846 10.8099 18.436C10.8245 18.4875 10.85 18.5352 10.8848 18.5758C10.9196 18.6165 10.9629 18.6491 11.0115 18.6715C11.0602 18.6939 11.1131 18.7055 11.1667 18.7055H13.4184C13.527 18.7055 13.6239 18.6667 13.7068 18.5964C13.7889 18.5259 13.8025 18.4286 13.8197 18.3213L14.4807 14.442C14.4975 14.3351 14.5521 14.196 14.6347 14.1255C14.7172 14.0549 14.7894 14.0164 14.8984 14.0164H16.2761C18.4853 14.0164 20.3593 12.4499 20.7019 10.2715C20.9445 8.72532 20.28 7.31852 18.9458 6.621Z" fill="#001C64"/>
<path d="M11.8324 11.2827L11.1438 15.6375L10.7115 18.3691C10.7032 18.4219 10.7065 18.4759 10.7211 18.5273C10.7357 18.5788 10.7613 18.6264 10.7961 18.6671C10.831 18.7077 10.8742 18.7403 10.9229 18.7626C10.9716 18.785 11.0245 18.7965 11.0781 18.7965H13.4613C13.5699 18.7964 13.6749 18.7577 13.7575 18.6873C13.84 18.6168 13.8946 18.5193 13.9115 18.4123L14.5396 14.4421C14.5565 14.335 14.6112 14.2375 14.6938 14.167C14.7764 14.0966 14.8815 14.0579 14.9902 14.0578H16.3929C18.6021 14.0578 20.4761 12.4504 20.8191 10.2719C21.0621 8.72577 20.2817 7.31861 18.9476 6.62109C18.944 6.78576 18.9297 6.95007 18.9043 7.11296C18.5617 9.2907 16.687 10.8985 14.4785 10.8985H12.2829C12.1742 10.8986 12.0691 10.9374 11.9865 11.0079C11.904 11.0784 11.8493 11.1756 11.8324 11.2827Z" fill="#0070E0"/>
<path d="M11.1431 15.6373H8.37048C8.3169 15.6373 8.26396 15.6257 8.21531 15.6033C8.16665 15.5809 8.12345 15.5483 8.08867 15.5076C8.05389 15.467 8.02836 15.4193 8.01385 15.3678C7.99934 15.3164 7.99618 15.2624 8.00461 15.2096L9.87399 3.38422C9.89092 3.27715 9.9456 3.17962 10.0282 3.10919C10.1108 3.03875 10.2159 3.00003 10.3245 3H15.0895C17.3451 3 18.9854 4.6374 18.9472 6.62089C18.3859 6.3272 17.7263 6.15933 17.0039 6.15933H13.0314C12.9227 6.15928 12.8175 6.19796 12.7349 6.2684C12.6522 6.33884 12.5975 6.43642 12.5805 6.54355L11.8323 11.2825L11.1427 15.6373H11.1431Z" fill="#003087"/>
</svg>
