<svg width="55" height="22" viewBox="0 0 55 22" fill="none" xmlns="http://www.w3.org/2000/svg">
<rect width="55" height="22" rx="11" fill="white"/>
<path d="M33.4021 5C30.633 5 28.1583 6.36303 28.1583 8.88133C28.1583 11.7693 32.5472 11.9688 32.5472 13.4197C32.5472 14.0306 31.81 14.5774 30.5509 14.5774C28.7639 14.5774 27.4284 13.8133 27.4284 13.8133L26.8569 16.3546C26.8569 16.3546 28.3955 17 30.4381 17C33.4657 17 35.848 15.57 35.848 13.0087C35.848 9.95697 31.4408 9.76343 31.4408 8.41679C31.4408 7.93824 32.046 7.41389 33.3015 7.41389C34.7181 7.41389 35.8739 7.96961 35.8739 7.96961L36.4332 5.5152C36.4332 5.5152 35.1756 5 33.4021 5ZM8.06705 5.18524L8 5.55572C8 5.55572 9.16499 5.75819 10.2142 6.16208C11.5653 6.62523 11.6615 6.89485 11.889 7.73227L14.3684 16.809H17.6921L22.8124 5.18524H19.4964L16.2063 13.0883L14.8637 6.38929C14.7406 5.6226 14.1169 5.18524 13.3535 5.18524H8.06705ZM24.1459 5.18524L21.5445 16.809H24.7067L27.2988 5.18524H24.1459ZM41.7821 5.18524C41.0196 5.18524 40.6156 5.57291 40.3192 6.25036L35.6865 16.809H39.0025L39.6441 15.0492H43.684L44.0741 16.809H47L44.4474 5.18524H41.7821ZM42.2134 8.32562L43.1963 12.6874H40.563L42.2134 8.32562Z" fill="#1434CB"/>
</svg>
